<svg version="1.0" xmlns="http://www.w3.org/2000/svg" width="824" height="588" viewBox="0 0 618 441"><path d="M193.7 60.6L95 110l.2 50.9.3 50.9L92 210c-23.7-12.1-80.6-39-81.7-38.6-1.1.5-1.3 10.2-1.1 55.8l.3 55.2L167 356.8l157.4 74.5 99.3-49.7L523 332l-.2-50.9-.3-50.9 3.5 1.8c23.7 12.1 80.6 39 81.7 38.6 1.1-.5 1.3-10.2 1.1-55.8l-.3-55.2-157-74.3c-86.3-40.8-157.4-74.2-158-74.2-.5 0-45.4 22.3-99.8 49.5zM410 175.5c60.8 29.6 110.6 53.8 110.7 53.9.3.2-196.6 91.3-198.4 91.8-.6.2-51.5-24.2-113.2-54.2L97 212.5l3.8-1.8c2-1 46.9-21.7 99.7-46.1C264.6 135 297 120.5 298 121c.8.4 51.2 24.9 112 54.5z"/></svg>